<?xml version="1.0" encoding="UTF-8"?>
<svg xmlns="http://www.w3.org/2000/svg" viewBox="0 0 1300 1300" width="512" height="512">
  <rect width="1300" height="1300" rx="234" fill="#1B7E94"/>
  <g transform="translate(316, 1186) scale(1, -1)">
    <path d="M299 -17Q249 -17 208 -3L157 -57Q209 -72 288.0 -94.0Q367 -116 449 -135Q480 -142 509 -126L539 -111L546 -122L493 -169Q432 -225 384 -225Q367 -225 335.5 -219.0Q304 -213 265.0 -203.5Q226 -194 185.5 -183.5Q145 -173 109 -164Q75 -156 50 -178L37 -188L26 -180L184 7Q123 36 87.0 99.0Q51 162 51 258Q51 341 77.0 416.0Q103 491 151.5 550.0Q200 609 268.5 643.0Q337 677 421 677Q496 677 552.0 643.5Q608 610 639.0 548.5Q670 487 670 403Q670 319 644.0 243.0Q618 167 569.5 108.5Q521 50 452.5 16.5Q384 -17 299 -17ZM309 3Q354 3 394.0 36.5Q434 70 464.5 128.5Q495 187 512.5 264.5Q530 342 530 429Q530 539 504.0 598.0Q478 657 416 657Q370 657 329.0 624.0Q288 591 257.0 533.0Q226 475 208.0 398.5Q190 322 190 235Q190 123 218.5 63.0Q247 3 309 3Z" fill="white"/>
  </g>
</svg>