<?xml version="1.0" encoding="UTF-8"?>
<svg xmlns="http://www.w3.org/2000/svg" viewBox="0 0 2806 1000">
  <g transform="translate(0, 1036) scale(1, -1)" fill="#1B7E94">
    <g transform="translate(0, 0)"><path d="M299 -17Q249 -17 208 -3L157 -57Q209 -72 288.0 -94.0Q367 -116 449 -135Q480 -142 509 -126L539 -111L546 -122L493 -169Q432 -225 384 -225Q367 -225 335.5 -219.0Q304 -213 265.0 -203.5Q226 -194 185.5 -183.5Q145 -173 109 -164Q75 -156 50 -178L37 -188L26 -180L184 7Q123 36 87.0 99.0Q51 162 51 258Q51 341 77.0 416.0Q103 491 151.5 550.0Q200 609 268.5 643.0Q337 677 421 677Q496 677 552.0 643.5Q608 610 639.0 548.5Q670 487 670 403Q670 319 644.0 243.0Q618 167 569.5 108.5Q521 50 452.5 16.5Q384 -17 299 -17ZM309 3Q354 3 394.0 36.5Q434 70 464.5 128.5Q495 187 512.5 264.5Q530 342 530 429Q530 539 504.0 598.0Q478 657 416 657Q370 657 329.0 624.0Q288 591 257.0 533.0Q226 475 208.0 398.5Q190 322 190 235Q190 123 218.5 63.0Q247 3 309 3Z"/></g>
    <g transform="translate(667, 0)"><path d="M155 -15Q127 -15 102.0 -2.0Q77 11 61.5 41.0Q46 71 46 120Q46 173 67.0 226.5Q88 280 123.0 328.5Q158 377 201.0 414.5Q244 452 290.0 474.0Q336 496 377 496Q397 496 414.5 488.5Q432 481 448 468L529 499L537 494L450 111Q443 83 443 65Q443 44 462 44Q476 44 494.5 57.0Q513 70 537 92L545 84Q530 60 507.5 37.5Q485 15 457.5 0.0Q430 -15 399 -15Q365 -15 344.0 5.5Q323 26 323 69Q323 83 324 96Q284 51 239.5 18.0Q195 -15 155 -15ZM164 165Q164 112 181.5 88.5Q199 65 228 65Q252 65 276.0 80.0Q300 95 328 123Q330 135 333 148L396 436Q383 452 365.0 458.0Q347 464 333 464Q290 464 243 413Q206 372 185.0 305.0Q164 238 164 165Z"/></g>
    <g transform="translate(1226, 0)"><path d="M118 -15Q85 -15 65.5 2.0Q46 19 46 51Q46 69 50.0 94.5Q54 120 62 160L119 436Q127 474 132.5 505.0Q138 536 145 575Q152 615 113 629L96 635L98 645L294 701L300 694L177 114Q174 99 172.0 87.5Q170 76 170 68Q170 46 189 46Q214 46 262 91L272 83Q247 46 209.0 15.5Q171 -15 118 -15Z"/></g>
    <g transform="translate(1501, 0)"><path d="M217 552Q189 552 168.5 570.5Q148 589 148 620Q148 655 172.5 677.5Q197 700 228 700Q258 700 277.0 681.0Q296 662 296 632Q296 598 272.0 575.0Q248 552 217 552ZM124 -15Q93 -15 73.0 1.0Q53 17 53 48Q53 66 57.0 91.0Q61 116 66 141L113 366Q122 407 84 424L68 432L69 443L257 497L267 488L189 126Q185 108 183.0 95.5Q181 83 181 71Q181 49 201 49Q216 49 231.0 58.5Q246 68 269 90L278 81Q253 44 214.5 14.5Q176 -15 124 -15Z"/></g>
    <g transform="translate(1786, 0)"><path d="M155 -15Q127 -15 102.0 -2.0Q77 11 61.5 41.0Q46 71 46 120Q46 173 67.0 226.5Q88 280 123.0 328.5Q158 377 201.0 414.5Q244 452 290.0 474.0Q336 496 377 496Q397 496 414.5 488.5Q432 481 448 468L529 499L537 494L450 111Q443 83 443 65Q443 44 462 44Q476 44 494.5 57.0Q513 70 537 92L545 84Q530 60 507.5 37.5Q485 15 457.5 0.0Q430 -15 399 -15Q365 -15 344.0 5.5Q323 26 323 69Q323 83 324 96Q284 51 239.5 18.0Q195 -15 155 -15ZM164 165Q164 112 181.5 88.5Q199 65 228 65Q252 65 276.0 80.0Q300 95 328 123Q330 135 333 148L396 436Q383 452 365.0 458.0Q347 464 333 464Q290 464 243 413Q206 372 185.0 305.0Q164 238 164 165Z"/></g>
    <g transform="translate(2375, 466) scale(0.3)"><path d="M132 0 134 10 158 19Q204 38 214 87L263 350Q271 392 280.5 443.5Q290 495 299.0 546.5Q308 598 315 640H272Q236 640 210.0 627.0Q184 614 163 585L83 476H73L110 660H664L632 476H622L585 577Q563 640 494 640H453L391 311Q381 260 370.5 201.5Q360 143 350 88Q341 36 389 16L402 10L400 0Z" opacity="0.6"/></g>
    <g transform="translate(2554, 466) scale(0.3)"><path d="M-14 0 -12 10 11 16Q57 29 65 74L159 577L156 588Q155 624 124 645L117 650L119 660H289L417 166L712 660H888L886 650L866 641Q830 626 823 585L774 311Q763 251 752.0 190.0Q741 129 731 68Q724 26 766 13L774 10L772 0H533L535 10L545 13Q587 26 594 69L682 548L355 0H318L178 546L92 76Q83 30 128 15L146 10L144 0Z" opacity="0.6"/></g>
  </g>
</svg>